<?xml version="1.0" standalone="no"?><!DOCTYPE svg PUBLIC "-//W3C//DTD SVG 1.1//EN" "http://www.w3.org/Graphics/SVG/1.1/DTD/svg11.dtd"><svg t="1503910054757" class="icon" style="" viewBox="0 0 1024 1024" version="1.1" xmlns="http://www.w3.org/2000/svg" p-id="1444" xmlns:xlink="http://www.w3.org/1999/xlink" width="200" height="200"><defs><style type="text/css"></style></defs><path d="M511.067768 211.399711c-247.76085 0-448.611298 208.703299-448.611298 299.015188 0 90.603531 200.850447 299.013141 448.611298 299.013141 247.764943 0 448.615391-208.480218 448.615391-299.013141C959.683159 419.332461 758.832711 211.399711 511.067768 211.399711zM511.391133 734.845391c-124.027781-0.48914-224.708831-95.509261-224.711901-224.402863-0.00307-128.986723 98.844216-224.972844 222.877113-224.176712 123.892705 0.796132 226.26835 95.340415 226.298026 224.176712C735.879953 639.428228 635.4271 735.336578 511.391133 734.845391zM511.265266 360.850511c-82.523505 0-149.425218 66.978461-149.425218 149.600203 0 82.620719 66.901713 149.59918 149.425218 149.59918 82.525552 0 149.425218-66.978461 149.425218-149.59918C660.690484 427.828972 593.791841 360.850511 511.265266 360.850511z" p-id="1445"></path></svg>